<svg xmlns="http://www.w3.org/2000/svg" viewBox="0 0 780 100" fill="none">
  <!-- Vollständiges Logo: Zahnärzte Parkstrasse (echte Vektoren) -->

  <!-- Baum-Icon (verkleinert auf ~90x100) -->
  <g transform="translate(5, 0) scale(0.09)">
    <g transform="translate(0,1000) scale(0.1,-0.1)" stroke="none">
      <g fill="#697B7B">
        <path d="M4939 9543 c-24 -20 -61 -55 -83 -78 -235 -246 -354 -469 -392 -733 -15 -103 -15 -121 0 -225 25 -177 87 -331 201 -503 97 -145 288 -344 331 -344 26 0 220 203 296 310 57 81 141 232 168 305 47 124 62 206 63 345 1 289 -127 564 -389 836 -53 54 -134 124 -144 124 -4 0 -26 -17 -51 -37z m118 -259 c388 -438 390 -879 5 -1322 -39 -45 -60 -62 -75 -60 -24 3 -117 109 -186 213 -58 85 -101 174 -137 280 -24 71 -27 95 -28 220 -1 175 13 227 101 400 55 107 227 335 254 335 4 0 34 -30 66 -66z"/>
        <path d="M3247 9463 c-40 -172 -32 -408 19 -559 61 -181 155 -300 328 -415 131 -87 385 -179 494 -179 39 0 39 0 50 53 27 124 32 164 32 264 0 180 -42 342 -123 479 -120 201 -358 351 -664 418 -119 26 -116 28 -136 -61z m290 -168 c220 -86 364 -228 425 -418 27 -84 39 -354 16 -362 -24 -9 -190 58 -273 110 -211 131 -307 307 -309 570 -1 61 2 118 6 128 9 21 13 20 135 -28z"/>
        <path d="M6590 9520 c-382 -91 -634 -290 -725 -575 -36 -113 -40 -144 -40 -310 0 -157 10 -247 35 -311 7 -19 13 -20 62 -14 171 24 375 107 514 208 113 84 182 162 237 273 71 142 91 231 91 419 1 146 -5 199 -36 298 -11 38 -25 39 -138 12z m1 -211 c17 -61 0 -246 -32 -349 -59 -186 -225 -339 -461 -425 -102 -36 -108 -32 -108 84 0 180 47 334 137 452 58 77 187 170 293 213 25 10 54 22 65 26 42 17 80 28 90 26 5 -1 12 -13 16 -27z"/>
        <path d="M3583 8031 c-53 -112 -114 -295 -144 -431 -20 -90 -24 -133 -24 -305 0 -208 5 -248 51 -396 49 -160 128 -293 259 -437 63 -70 220 -201 320 -267 105 -69 301 -167 419 -210 l94 -34 14 22 c36 56 94 200 135 332 57 188 77 343 70 555 -7 204 -30 302 -108 465 -106 225 -293 421 -561 587 -142 88 -410 208 -466 208 -12 0 -30 -26 -59 -89z m295 -191 c201 -102 371 -231 493 -372 82 -95 119 -156 162 -264 58 -145 71 -216 71 -409 0 -164 -3 -197 -40 -355 -25 -108 -85 -270 -99 -270 -17 0 -196 93 -285 148 -222 136 -433 352 -502 512 -53 122 -65 165 -83 285 -31 206 -10 406 66 635 47 142 51 150 77 150 13 0 76 -27 140 -60z"/>
        <path d="M6257 8095 c-163 -58 -377 -172 -512 -272 -117 -88 -277 -249 -339 -341 -141 -212 -199 -414 -199 -692 0 -189 26 -339 92 -540 37 -110 102 -262 122 -287 23 -27 372 131 543 246 84 57 190 146 273 228 232 232 343 511 343 860 0 116 -4 150 -37 318 -25 131 -114 385 -164 470 -25 41 -33 42 -122 10z m48 -280 c17 -44 39 -111 49 -150 9 -38 23 -90 29 -115 17 -65 16 -450 -1 -515 -27 -97 -47 -151 -85 -225 -115 -225 -342 -427 -658 -586 -92 -46 -114 -53 -124 -42 -18 18 -79 203 -106 318 -19 80 -22 125 -23 290 0 218 13 289 79 443 77 177 257 371 476 513 103 67 281 154 309 151 21 -2 29 -14 55 -82z"/>
        <path d="M1729 8084 c-34 -10 -35 -209 -3 -403 46 -272 141 -474 308 -650 117 -123 350 -243 561 -289 28 -7 72 -16 98 -22 26 -6 127 -13 224 -17 l176 -6 -6 184 c-7 212 -22 299 -84 479 -51 150 -132 283 -245 401 -141 147 -393 265 -661 309 -74 12 -342 22 -368 14z m426 -204 c212 -44 405 -149 515 -281 134 -161 201 -328 240 -600 18 -122 17 -123 -83 -116 -173 12 -309 49 -462 127 -123 61 -216 140 -290 245 -78 110 -94 147 -165 380 -14 46 -33 241 -26 261 6 15 17 16 94 10 48 -4 127 -16 177 -26z"/>
        <path d="M8020 8084 c-275 -26 -475 -93 -680 -229 -153 -102 -294 -304 -366 -523 -68 -206 -107 -561 -69 -622 6 -10 47 -12 177 -7 94 4 186 11 206 16 21 5 64 15 97 21 221 44 464 173 588 313 124 141 174 227 231 399 80 239 112 598 56 628 -17 9 -157 11 -240 4z m82 -259 c-1 -44 -7 -102 -12 -130 -14 -63 -40 -164 -50 -190 -4 -11 -15 -41 -24 -66 -42 -117 -164 -278 -271 -357 -65 -48 -210 -121 -290 -144 -142 -43 -345 -72 -374 -54 -22 14 -6 155 36 316 57 221 174 404 328 515 158 114 423 197 605 192 l55 -2 -3 -80z"/>
        <path d="M655 6530 c-95 -13 -156 -31 -162 -48 -8 -20 22 -165 53 -258 76 -224 184 -375 363 -502 91 -66 261 -116 431 -128 87 -6 302 16 356 36 26 10 27 12 20 72 -3 34 -10 76 -16 92 -56 183 -121 328 -185 417 -88 119 -233 228 -370 278 -113 41 -345 61 -490 41z m316 -175 c96 -18 100 -19 191 -65 67 -33 160 -114 210 -180 59 -81 156 -295 145 -324 -12 -31 -225 -24 -352 11 -108 30 -172 69 -259 156 -65 64 -92 102 -128 172 -51 100 -92 215 -81 226 24 22 163 24 274 4z"/>
        <path d="M9005 6531 c-270 -44 -481 -200 -607 -449 -61 -121 -98 -228 -123 -351 -19 -96 -19 -94 58 -111 155 -33 326 -35 475 -6 105 21 226 71 292 120 53 40 169 156 200 201 50 72 126 233 149 315 8 25 17 56 22 70 14 39 29 164 21 171 -34 33 -365 59 -487 40z m284 -177 c13 -13 -22 -112 -77 -222 -35 -71 -65 -113 -117 -167 -80 -83 -130 -117 -224 -152 -123 -46 -384 -64 -398 -26 -12 31 82 240 148 330 83 112 232 207 364 231 33 7 69 14 80 16 33 8 215 0 224 -10z"/>
        <path d="M7135 6349 c-215 -13 -392 -73 -580 -198 -104 -68 -286 -257 -374 -385 -76 -113 -185 -314 -216 -401 -10 -27 -21 -54 -25 -60 -12 -19 -31 -95 -25 -105 3 -5 29 -20 58 -33 378 -178 808 -232 1131 -141 99 28 261 105 343 163 149 106 296 269 418 465 59 95 86 148 160 311 23 51 55 157 50 165 -9 14 -118 67 -215 103 -87 32 -132 46 -245 76 -132 34 -320 50 -480 40z m295 -184 c52 -8 120 -20 150 -27 90 -19 262 -82 273 -99 7 -12 -2 -41 -38 -115 -158 -327 -379 -568 -621 -679 -143 -65 -247 -86 -434 -86 -191 0 -356 28 -535 92 -78 27 -95 37 -95 53 0 27 105 225 178 336 87 131 261 314 354 373 127 81 245 128 373 152 96 18 280 18 395 0z"/>
        <path d="M2559 6346 c-3 -3 -36 -10 -74 -15 -77 -12 -128 -24 -220 -51 -148 -44 -355 -135 -355 -156 0 -19 48 -149 81 -222 16 -35 29 -65 29 -67 0 -12 121 -213 178 -295 74 -107 258 -296 342 -351 77 -51 175 -104 238 -128 273 -108 648 -104 997 10 101 33 97 31 218 88 102 47 99 32 34 196 -126 315 -326 591 -557 770 -121 93 -312 177 -476 209 -75 15 -423 24 -435 12z m386 -181 c120 -23 157 -35 243 -75 202 -95 380 -267 534 -517 55 -87 138 -252 138 -272 0 -13 -19 -22 -110 -54 -175 -61 -332 -88 -515 -88 -255 0 -418 49 -610 186 -74 53 -225 208 -286 295 -43 60 -159 255 -159 265 0 3 -11 28 -25 57 -14 28 -25 59 -25 69 0 22 162 84 290 110 188 39 399 49 525 24z"/>
        <path d="M4921 5628 c-199 -175 -389 -452 -465 -678 -78 -232 -77 -472 3 -710 77 -228 286 -527 493 -701 l47 -40 78 69 c143 127 297 327 386 502 94 186 137 352 137 530 0 277 -109 548 -331 824 -60 76 -253 266 -269 266 -5 0 -40 -28 -79 -62z m170 -264 c116 -131 216 -292 280 -449 12 -31 28 -93 44 -175 58 -294 -77 -644 -367 -955 l-47 -50 -41 40 c-54 51 -155 180 -212 271 -285 445 -225 891 178 1342 48 53 69 70 80 64 8 -5 47 -44 85 -88z"/>
        <path d="M1355 5314 c-68 -7 -187 -40 -255 -71 -140 -63 -226 -113 -325 -190 -85 -67 -265 -250 -265 -269 0 -25 221 -237 318 -304 220 -154 431 -230 642 -230 292 0 604 151 868 422 115 117 112 106 45 179 -142 153 -299 275 -451 350 -124 60 -135 64 -229 90 -72 19 -262 32 -348 23z m210 -175 c126 -17 274 -74 400 -154 71 -45 235 -184 235 -199 0 -33 -230 -205 -352 -264 -147 -71 -198 -84 -346 -90 -104 -3 -149 -1 -205 13 -98 23 -285 114 -377 183 -93 70 -170 141 -170 157 0 36 219 203 350 266 179 87 306 111 465 88z"/>
        <path d="M8405 5314 c-256 -28 -595 -222 -797 -457 -49 -57 -57 -71 -48 -87 21 -39 188 -197 286 -271 101 -76 258 -160 370 -198 250 -84 487 -65 739 57 169 83 363 231 471 361 l53 64 -22 31 c-39 56 -170 181 -266 254 -99 76 -283 174 -386 206 -33 10 -73 22 -89 27 -33 10 -252 19 -311 13z m225 -178 c107 -17 157 -34 267 -90 135 -68 343 -226 343 -261 0 -16 -130 -130 -214 -187 -69 -48 -239 -129 -311 -149 -33 -9 -102 -14 -200 -14 -139 0 -156 2 -235 29 -147 50 -277 127 -425 252 -36 31 -65 61 -65 69 0 15 95 100 190 169 64 47 230 132 304 156 52 17 172 38 221 39 22 1 78 -5 125 -13z"/>
        <path d="M3010 4570 c-126 -24 -163 -34 -237 -64 -257 -106 -483 -313 -663 -611 -81 -134 -200 -401 -200 -449 0 -14 98 -65 198 -102 362 -137 687 -167 975 -90 189 51 360 152 515 304 183 181 327 400 429 657 65 164 67 149 -30 195 -325 151 -707 213 -987 160z m326 -160 c142 -13 356 -60 449 -99 11 -5 32 -13 48 -20 15 -6 27 -16 27 -22 0 -39 -144 -296 -234 -419 -59 -81 -190 -214 -265 -269 -62 -46 -187 -114 -256 -139 -165 -60 -446 -68 -665 -18 -111 25 -121 28 -214 61 -69 24 -92 36 -94 51 -4 29 95 224 178 347 123 185 277 331 436 416 118 63 196 87 339 106 131 17 124 17 251 5z"/>
        <path d="M6525 4569 c-157 -25 -227 -42 -355 -86 -95 -32 -260 -109 -260 -121 0 -27 50 -155 109 -277 190 -394 469 -678 779 -795 291 -110 642 -101 1012 27 89 30 255 106 263 121 7 10 -23 110 -55 182 -129 289 -280 508 -465 674 -271 243 -634 340 -1028 275z m337 -160 c162 -17 294 -56 390 -116 21 -13 40 -23 43 -23 3 0 30 -18 59 -39 169 -125 315 -304 433 -531 66 -126 77 -160 60 -177 -23 -23 -173 -70 -362 -114 -93 -22 -410 -19 -500 4 -78 20 -177 58 -245 95 -205 111 -422 361 -560 642 -27 57 -50 109 -50 116 0 17 17 26 110 56 171 57 298 81 502 97 10 0 64 -4 120 -10z"/>
        <path d="M1184 3970 c-351 -78 -577 -328 -674 -746 -33 -142 -36 -137 73 -159 122 -25 371 -26 467 -1 163 42 268 102 386 221 130 131 226 324 275 550 10 50 11 115 2 115 -5 0 -52 9 -106 20 -126 26 -308 25 -423 0z m331 -170 c8 -14 -28 -115 -79 -220 -33 -69 -58 -102 -131 -176 -86 -87 -134 -118 -230 -152 -89 -31 -239 -46 -330 -34 -48 7 -50 8 -47 37 5 36 52 153 94 231 38 70 146 186 213 230 48 30 170 77 225 87 53 9 279 7 285 -3z"/>
        <path d="M8415 3979 c-22 -5 -64 -15 -93 -21 -29 -6 -55 -15 -58 -19 -7 -12 25 -162 53 -249 29 -90 94 -228 136 -290 74 -108 216 -232 317 -278 137 -61 297 -88 470 -77 94 6 238 31 252 44 13 12 -13 151 -48 259 -88 267 -236 454 -439 552 -73 35 -111 47 -248 79 -56 13 -285 13 -342 0z m374 -185 c126 -31 203 -75 295 -166 70 -70 91 -100 130 -180 56 -117 87 -209 75 -223 -5 -5 -62 -9 -127 -8 -237 1 -394 71 -529 236 -62 75 -163 288 -163 342 0 22 230 21 319 -1z"/>
        <path d="M3635 3140 c-332 -35 -590 -202 -712 -460 -72 -151 -103 -293 -103 -467 l0 -120 43 -6 c52 -7 263 8 321 24 124 33 160 46 251 93 211 108 356 307 419 576 23 101 39 279 29 325 l-9 40 -84 1 c-47 1 -116 -2 -155 -6z m65 -214 c0 -53 -22 -146 -57 -239 -79 -213 -260 -358 -508 -408 -108 -21 -134 -22 -141 -6 -8 21 20 158 50 245 56 167 163 290 316 364 52 26 120 52 150 59 30 6 69 15 85 20 17 4 47 8 68 8 l37 1 0 -44z"/>
        <path d="M6107 3099 c-11 -100 13 -291 51 -406 48 -143 86 -213 166 -308 80 -95 133 -135 254 -194 71 -36 114 -51 231 -81 59 -16 254 -30 314 -23 l47 6 0 91 c0 98 -15 245 -29 286 -5 14 -17 52 -27 85 -52 166 -167 331 -290 416 -53 36 -191 106 -237 120 -88 28 -225 50 -343 55 l-131 7 -6 -54z m311 -144 c126 -27 253 -83 332 -147 52 -42 124 -133 153 -193 47 -95 87 -239 87 -311 0 -40 -2 -44 -25 -44 -14 0 -44 5 -67 10 -24 6 -72 17 -107 25 -75 18 -209 83 -267 131 -114 92 -201 270 -239 486 -12 64 5 69 133 43z"/>
      </g>
      <g fill="#F26522">
        <path d="M5514 3151 c-2 -2 -4 -244 -4 -536 l0 -532 45 -6 c43 -6 95 -29 143 -63 l22 -16 0 575 0 576 -101 3 c-55 2 -103 1 -105 -1z"/>
        <path d="M4270 2565 c0 -608 2 -642 44 -722 22 -43 85 -104 126 -121 79 -33 113 -36 559 -41 l453 -6 29 -35 29 -34 0 -463 c0 -254 -3 -464 -8 -467 -8 -4 -25 6 -337 203 l-169 108 -88 -56 c-418 -267 -428 -272 -428 -250 0 8 0 186 0 395 0 210 -2 389 -6 398 -3 9 -17 16 -30 16 -32 0 -70 18 -126 58 l-48 34 0 -646 c0 -355 3 -646 8 -646 4 0 45 25 92 55 47 30 164 104 260 165 96 61 217 138 268 170 51 33 95 60 97 60 5 0 177 -108 529 -330 104 -66 190 -120 193 -120 2 0 3 305 1 678 -3 634 -4 680 -22 717 -39 84 -78 127 -146 159 l-65 31 -450 6 c-247 3 -462 9 -477 14 -14 4 -37 18 -50 32 l-23 25 -3 599 -3 599 -104 0 -105 0 0 -585z"/>
      </g>
    </g>
  </g>

  <!-- Schriftzug -->
  <text x="115" y="42" font-family="'Cormorant Garamond', 'Georgia', serif" font-size="28" font-weight="600" fill="#697B7B" letter-spacing="2">ZAHNÄRZTE PARKSTRASSE</text>
  <text x="115" y="65" font-family="'Work Sans', 'Arial', sans-serif" font-size="11" font-weight="400" fill="#F26522" letter-spacing="3">IMPLANTOLOGIE  |  ZAHNMEDIZIN  |  ORALCHIRURGIE</text>
  <text x="115" y="85" font-family="'Work Sans', 'Arial', sans-serif" font-size="13" font-weight="500" fill="#F26522" letter-spacing="5">OTHMARSCHEN</text>
</svg>
